<svg xmlns="http://www.w3.org/2000/svg" style="display: none;"><symbol id="pool" viewBox="0 -960 960 960"><path d="M80-120v-80q38 0 57-20t75-20q56 0 77 20t57 20q36 0 57-20t77-20q56 0 77 20t57 20q36 0 57-20t77-20q56 0 75 20t57 20v80q-59 0-77.5-20T748-160q-36 0-57 20t-77 20q-56 0-77-20t-57-20q-36 0-57 20t-77 20q-56 0-77-20t-57-20q-36 0-54.5 20T80-120Zm0-180v-80q38 0 57-20t75-20q56 0 77.5 20t56.5 20q36 0 57-20t77-20q56 0 77 20t57 20q36 0 57-20t77-20q56 0 75 20t57 20v80q-59 0-77.5-20T748-340q-36 0-55.5 20T614-300q-57 0-77.5-20T480-340q-38 0-56.5 20T346-300q-59 0-78.5-20T212-340q-36 0-54.5 20T80-300Zm196-204 133-133-40-40q-33-33-70-48t-91-15v-100q75 0 124 16.5t96 63.5l256 256q-17 11-33 17.5t-37 6.5q-36 0-57-20t-77-20q-56 0-77 20t-57 20q-21 0-37-6.5T276-504Zm392-336q42 0 71 29.5t29 70.5q0 42-29 71t-71 29q-42 0-71-29t-29-71q0-41 29-70.5t71-29.5Z"/></symbol><symbol id="local_movies"   viewBox="0 -960 960 960"><path d="M160-120v-720h80v80h80v-80h320v80h80v-80h80v720h-80v-80h-80v80H320v-80h-80v80h-80Zm80-160h80v-80h-80v80Zm0-160h80v-80h-80v80Zm0-160h80v-80h-80v80Zm400 320h80v-80h-80v80Zm0-160h80v-80h-80v80Zm0-160h80v-80h-80v80ZM400-200h160v-560H400v560Zm0-560h160-160Z"/></symbol><symbol id="child_care"   viewBox="0 -960 960 960"><path d="M580-490q-21 0-35.5-14.5T530-540q0-21 14.5-35.5T580-590q21 0 35.5 14.5T630-540q0 21-14.5 35.5T580-490Zm-200 0q-21 0-35.5-14.5T330-540q0-21 14.5-35.5T380-590q21 0 35.5 14.5T430-540q0 21-14.5 35.5T380-490Zm100 210q-60 0-108.5-33T300-400h360q-23 54-71.5 87T480-280Zm0 160q-75 0-140.5-28.5t-114-77q-48.5-48.5-77-114T120-480q0-75 28.5-140.5t77-114q48.5-48.5 114-77T480-840q75 0 140.5 28.5t114 77q48.5 48.5 77 114T840-480q0 75-28.5 140.5t-77 114q-48.5 48.5-114 77T480-120Zm0-80q116 0 198-82t82-198q0-116-82-198t-198-82h-12q-6 0-12 2-6 6-8 13t-2 15q0 21 14.5 35.5T496-680q9 0 16.5-3t15.5-3q12 0 20 9t8 21q0 23-21.5 29.5T496-620q-45 0-77.5-32.5T386-730v-6q0-3 1-8-83 30-135 101t-52 163q0 116 82 198t198 82Zm0-280Z"/></symbol><symbol id="gps_fixed"   viewBox="0 -960 960 960"><path d="M440-42v-80q-125-14-214.5-103.5T122-440H42v-80h80q14-125 103.5-214.5T440-838v-80h80v80q125 14 214.5 103.5T838-520h80v80h-80q-14 125-103.5 214.5T520-122v80h-80Zm40-158q116 0 198-82t82-198q0-116-82-198t-198-82q-116 0-198 82t-82 198q0 116 82 198t198 82Zm0-120q-66 0-113-47t-47-113q0-66 47-113t113-47q66 0 113 47t47 113q0 66-47 113t-113 47Zm0-80q33 0 56.5-23.5T560-480q0-33-23.5-56.5T480-560q-33 0-56.5 23.5T400-480q0 33 23.5 56.5T480-400Zm0-80Z"/></symbol><symbol id="local_play"   viewBox="0 -960 960 960"><path d="m368-320 112-84 110 84-42-136 112-88H524l-44-136-44 136H300l110 88-42 136ZM160-160q-33 0-56.5-23.5T80-240v-135q0-11 7-19t18-10q24-8 39.5-29t15.5-47q0-26-15.5-47T105-556q-11-2-18-10t-7-19v-135q0-33 23.5-56.5T160-800h640q33 0 56.5 23.5T880-720v135q0 11-7 19t-18 10q-24 8-39.5 29T800-480q0 26 15.5 47t39.5 29q11 2 18 10t7 19v135q0 33-23.5 56.5T800-160H160Zm0-80h640v-102q-37-22-58.5-58.5T720-480q0-43 21.5-79.5T800-618v-102H160v102q37 22 58.5 58.5T240-480q0 43-21.5 79.5T160-342v102Zm320-240Z"/></symbol><symbol id="account_balance"   viewBox="0 -960 960 960"><path d="M200-280v-280h80v280h-80Zm240 0v-280h80v280h-80ZM80-120v-80h800v80H80Zm600-160v-280h80v280h-80ZM80-640v-80l400-200 400 200v80H80Zm178-80h444-444Zm0 0h444L480-830 258-720Z"/></symbol><symbol id="directions_run"   viewBox="0 -960 960 960"><path d="M520-40v-240l-84-80-40 176-276-56 16-80 192 40 64-324-72 28v136h-80v-188l158-68q35-15 51.5-19.5T480-720q21 0 39 11t29 29l40 64q26 42 70.5 69T760-520v80q-66 0-123.5-27.5T540-540l-24 120 84 80v300h-80Zm20-700q-33 0-56.5-23.5T460-820q0-33 23.5-56.5T540-900q33 0 56.5 23.5T620-820q0 33-23.5 56.5T540-740Z"/></symbol></svg>